<?xml version="1.0" standalone="no"?>
<!DOCTYPE svg PUBLIC "-//W3C//DTD SVG 1.1//EN" "http://www.w3.org/Graphics/SVG/1.1/DTD/svg11.dtd" >
<svg xmlns="http://www.w3.org/2000/svg">
<metadata>Generated by IcoMoon</metadata>
<defs>
<font id="icomoon" horiz-adv-x="1024">
<font-face units-per-em="1024" ascent="960" descent="-64" />
<missing-glyph horiz-adv-x="1024" />
<glyph unicode="&#x20;" horiz-adv-x="512" d="" />
<glyph unicode="&#xe900;" glyph-name="search" d="M995.828-35.826c-37.566-37.564-98.45-37.564-136.016 0l-169.726 169.726c-69.776-44.764-152.26-71.434-241.318-71.434-247.83 0-448.768 200.908-448.768 448.768s200.938 448.766 448.768 448.766c247.862 0 448.768-200.904 448.768-448.766 0-89.028-26.704-171.542-71.436-241.352l169.728-169.726c37.562-37.564 37.562-98.418 0-135.982zM448.768 831.782c-177.022 0-320.548-143.494-320.548-320.546s143.526-320.548 320.548-320.548c177.052 0 320.548 143.496 320.548 320.548s-143.496 320.546-320.548 320.546z" />
<glyph unicode="&#xe901;" glyph-name="twitter" horiz-adv-x="951" d="M925.714 717.714c-25.143-36.571-56.571-69.143-92.571-95.429 0.571-8 0.571-16 0.571-24 0-244-185.714-525.143-525.143-525.143-104.571 0-201.714 30.286-283.429 82.857 14.857-1.714 29.143-2.286 44.571-2.286 86.286 0 165.714 29.143 229.143 78.857-81.143 1.714-149.143 54.857-172.571 128 11.429-1.714 22.857-2.857 34.857-2.857 16.571 0 33.143 2.286 48.571 6.286-84.571 17.143-148 91.429-148 181.143v2.286c24.571-13.714 53.143-22.286 83.429-23.429-49.714 33.143-82.286 89.714-82.286 153.714 0 34.286 9.143 65.714 25.143 93.143 90.857-112 227.429-185.143 380.571-193.143-2.857 13.714-4.571 28-4.571 42.286 0 101.714 82.286 184.571 184.571 184.571 53.143 0 101.143-22.286 134.857-58.286 41.714 8 81.714 23.429 117.143 44.571-13.714-42.857-42.857-78.857-81.143-101.714 37.143 4 73.143 14.286 106.286 28.571z" />
<glyph unicode="&#xe902;" glyph-name="youtube-play" d="M406.286 306.286l276.571 142.857-276.571 144.571v-287.429zM512 798.857c215.429 0 358.286-10.286 358.286-10.286 20-2.286 64-2.286 102.857-43.429 0 0 31.429-30.857 40.571-101.714 10.857-82.857 10.286-165.714 10.286-165.714v-77.714s0.571-82.857-10.286-165.714c-9.143-70.286-40.571-101.714-40.571-101.714-38.857-40.571-82.857-40.571-102.857-42.857 0 0-142.857-10.857-358.286-10.857v0c-266.286 2.286-348 10.286-348 10.286-22.857 4-74.286 2.857-113.143 43.429 0 0-31.429 31.429-40.571 101.714-10.857 82.857-10.286 165.714-10.286 165.714v77.714s-0.571 82.857 10.286 165.714c9.143 70.857 40.571 101.714 40.571 101.714 38.857 41.143 82.857 41.143 102.857 43.429 0 0 142.857 10.286 358.286 10.286v0z" />
<glyph unicode="&#xe903;" glyph-name="fb" horiz-adv-x="640" d="M558 384h-150v-448h-200v448h-164v184h164v142c0 160 96 250 242 250 70 0 144-14 144-14v-158h-82c-80 0-104-48-104-100v-120h178l-28-184z" />
<glyph unicode="&#xe904;" glyph-name="cheveron-down" d="M475.802 309.76l36.198-36.198 289.638 289.638-72.397 72.397-217.242-217.19-217.242 217.19-72.397-72.397z" />
<glyph unicode="&#xe905;" glyph-name="cheveron-up" d="M548.198 611.84l-36.198 36.198-289.638-289.638 72.397-72.397 217.242 217.19 217.242-217.19 72.397 72.397z" />
<glyph unicode="&#xe906;" glyph-name="close" d="M512 533.197l-362.035 362.035-72.397-72.397 362.035-362.035-362.035-362.035 72.397-72.397 362.035 362.035 362.035-362.035 72.397 72.397-362.035 362.035 362.035 362.035-72.397 72.397-362.035-362.035z" />
<glyph unicode="&#xe907;" glyph-name="chevrons-right" d="M584.832 183.168l213.333 213.333c16.683 16.683 16.683 43.691 0 60.331l-213.333 213.333c-16.683 16.683-43.691 16.683-60.331 0s-16.683-43.691 0-60.331l183.168-183.168-183.168-183.168c-16.683-16.683-16.683-43.691 0-60.331s43.691-16.683 60.331 0zM286.165 183.168l213.333 213.333c16.683 16.683 16.683 43.691 0 60.331l-213.333 213.333c-16.683 16.683-43.691 16.683-60.331 0s-16.683-43.691 0-60.331l183.168-183.168-183.168-183.168c-16.683-16.683-16.683-43.691 0-60.331s43.691-16.683 60.331 0z" />
<glyph unicode="&#xe908;" glyph-name="location" d="M512 448.667q44 0 75 31t31 75-31 75-75 31-75-31-31-75 31-75 75-31zM512 852.667q124 0 211-87t87-211q0-62-31-142t-75-150-87-131-73-97l-32-34q-12 14-32 37t-72 92-91 134-71 147-32 144q0 124 87 211t211 87z" />
<glyph unicode="&#xe909;" glyph-name="envelope" d="M1024 545.143v-453.714c0-50.286-41.143-91.429-91.429-91.429h-841.143c-50.286 0-91.429 41.143-91.429 91.429v453.714c17.143-18.857 36.571-35.429 57.714-49.714 94.857-64.571 190.857-129.143 284-197.143 48-35.429 107.429-78.857 169.714-78.857h1.143c62.286 0 121.714 43.429 169.714 78.857 93.143 67.429 189.143 132.571 284.571 197.143 20.571 14.286 40 30.857 57.143 49.714zM1024 713.143c0-64-47.429-121.714-97.714-156.571-89.143-61.714-178.857-123.429-267.429-185.714-37.143-25.714-100-78.286-146.286-78.286h-1.143c-46.286 0-109.143 52.571-146.286 78.286-88.571 62.286-178.286 124-266.857 185.714-40.571 27.429-98.286 92-98.286 144 0 56 30.286 104 91.429 104h841.143c49.714 0 91.429-41.143 91.429-91.429z" />
<glyph unicode="&#xe90a;" glyph-name="send" horiz-adv-x="1025" d="M1008 944.571c12-8.571 17.714-22.286 15.429-36.571l-146.286-877.714c-1.714-10.857-8.571-20-18.286-25.714-5.143-2.857-11.429-4.571-17.714-4.571-4.571 0-9.143 1.143-13.714 2.857l-258.857 105.714-138.286-168.571c-6.857-8.571-17.143-13.143-28-13.143-4 0-8.571 0.571-12.571 2.286-14.286 5.143-24 18.857-24 34.286v199.429l493.714 605.143-610.857-528.571-225.714 92.571c-13.143 5.143-21.714 17.143-22.857 31.429-0.571 13.714 6.286 26.857 18.286 33.714l950.857 548.571c5.714 3.429 12 5.143 18.286 5.143 7.429 0 14.857-2.286 20.571-6.286z" />
<glyph unicode="&#xe90b;" glyph-name="shoppingcart" d="M726 170.667q34 0 59-26t25-60-25-59-59-25-60 25-26 59 26 60 60 26zM42 852.667h140l40-84h632q18 0 30-13t12-31q0-2-6-20l-152-276q-24-44-74-44h-318l-38-70-2-6q0-10 10-10h494v-86h-512q-34 0-59 26t-25 60q0 20 10 40l58 106-154 324h-86v84zM298 170.667q34 0 60-26t26-60-26-59-60-25-59 25-25 59 25 60 59 26z" />
<glyph unicode="&#xe918;" glyph-name="bread" d="M963.708 379.204c-6.322 5.362-15.784 4.58-21.142-1.736-5.358-6.318-4.582-15.786 1.738-21.142 32.466-27.536 49.652-58.354 49.696-89.124 0.030-20.656-7.376-38.118-22.642-53.382-25.526-25.528-73.024-44.542-141.174-56.52-61.178-10.75-137.796-15.968-234.304-15.776-148.998 0.202-254.106 13.096-319.87 39.312 25.332 18.024 52.434 39.658 81.498 65.046 8.798-10.526 21.412-17.482 35.552-18.91 29.368-2.966 55.796 18.776 58.63 48.316 1.894 19.754 1.936 39.646 0.15 59.246 26.33 26.268 50.080 51.064 71.428 74.584 12.024-20.58 20.304-42.27 24.644-64.708 3.706-19.122 4.62-38.918 2.714-58.842-2.816-29.52 18.746-55.948 48.182-58.922 29.296-2.96 55.514 18.616 58.38 48.358 2.912 30.198 1.504 60.42-4.184 89.83-6 30.976-16.794 60.882-32.132 89.234 28.804-0.9 56.978-3.242 84.174-6.97 25.042-31.732 40.486-66.286 45.876-102.796 2.844-19.27 2.868-39.082 0.066-58.888-4.15-29.366 16.208-56.738 45.396-61.022 28.96-4.25 56.422 16.060 60.602 45.63 4.254 30.1 4.2 60.352-0.164 89.914-2.626 17.784-6.85 35.38-12.606 52.608 14.92-5.728 29.142-11.998 42.53-18.81 7.27-3.7 16.366-0.91 20.17 6.566 3.758 7.382 0.818 16.414-6.566 20.172-82.434 41.952-196.392 65.074-313.522 63.982 8.072 10.46 15.59 20.654 22.56 30.596 43.934 62.672 65.292 114.032 65.292 157.012 0 29.552-10.28 54.79-30.552 75.006-42.416 42.302-114.226 48.968-202.196 18.774-84.378-28.96-174.782-88.724-254.556-168.28-115.576-115.264-187.376-250.606-187.376-353.21 0-42.55 12.954-77.96 37.464-102.402 20.33-20.274 45.33-30.408 74.806-30.406 31.204 0 67.424 11.356 108.426 34.062 8.404 4.654 17.034 9.798 25.888 15.408 68.406-33.058 182.828-49.266 349.254-49.49 95.128-0.128 178.012 5.416 239.538 16.228 75.386 13.248 126.804 34.462 157.194 64.854 20.896 20.896 31.47 46.008 31.428 74.638-0.056 39.842-20.904 78.556-60.29 111.96zM807.3 425.172c9.648-22.502 16.344-45.882 19.848-69.616 3.944-26.716 3.99-54.082 0.136-81.334-1.844-13.044-13.704-22.030-26.556-20.144-12.894 1.89-21.88 14.066-20.034 27.136 3.204 22.654 3.172 45.354-0.094 67.47-4.738 32.098-16.18 62.744-34.064 91.508 21.066-4.148 41.384-9.162 60.764-15.020zM421.828 278.152c-1.17-12.242-11.178-21.466-23.302-21.466-7.424 0-14.156 3.404-18.604 9.168 13.962 12.676 28.36 26.176 43.212 40.51 0.018-9.4-0.404-18.822-1.306-28.212zM623.552 359.136c5.14-26.582 6.412-53.918 3.776-81.264-1.26-13.080-12.708-22.67-25.62-21.366-12.954 1.308-22.47 13.068-21.216 26.208 2.178 22.784 1.126 45.458-3.124 67.398-5.58 28.846-16.76 56.524-33.256 82.444 6.286 7.222 12.344 14.326 18.158 21.306 7.858 0.298 15.788 0.516 23.76 0.594 18.448-29.956 31.066-61.986 37.522-95.32zM379.296 705.484c22.716-9.088 43.964-20.878 63.204-35.168 21.678-16.104 41.060-35.42 57.608-57.416 7.396-9.832 6.222-23.39-2.73-31.538-10.284-9.358-26.726-7.67-35.158 3.54-13.754 18.284-29.828 34.312-47.774 47.64-26.034 19.336-55.778 32.914-88.74 40.608 17.826 11.954 35.74 22.766 53.59 32.334zM84.98 416.35c23.414-8.090 45.41-19.016 65.514-32.592 22.378-15.116 42.61-33.546 60.132-54.782 7.836-9.498 7.282-23.11-1.296-31.662-9.834-9.806-26.324-8.854-35.246 1.958-14.564 17.65-31.342 32.946-49.868 45.458-18.54 12.522-39.020 22.264-61.014 29.164 6.418 14 13.69 28.186 21.778 42.456zM206.164 171.85c-67.578-37.424-115.83-40.258-147.516-8.658-19.010 18.958-28.648 46.264-28.648 81.16 0 30.648 7.578 65.268 21.526 101.752 20.256-6.072 39.026-14.842 55.898-26.236 16.142-10.902 30.784-24.256 43.518-39.69 20.114-24.378 57.308-26.304 79.572-4.104 19.596 19.54 20.994 50.492 3.25 71.996-19.352 23.452-41.718 43.822-66.48 60.546-20.564 13.888-42.906 25.234-66.578 33.94 12.294 19.468 25.99 38.96 40.974 58.208 30.642-1.728 72.582-9.66 111.26-35.784 16.144-10.9 30.784-24.254 43.516-39.686 18.908-22.916 52.854-26.286 75.648-7.652 22.96 18.768 26.030 52.696 7.176 75.542-11.916 14.442-25.11 27.846-39.214 39.84-6.308 5.364-15.778 4.602-21.144-1.71-5.368-6.31-4.602-15.778 1.71-21.144 12.764-10.854 24.71-22.992 35.506-36.078 8.382-10.16 7.028-25.002-3.026-33.222-10.082-8.244-25.118-6.664-33.518 3.52-14.564 17.65-31.34 32.944-49.866 45.454-30.384 20.522-66.324 33.728-105.22 38.876 11.898 13.918 24.438 27.624 37.572 41.020 22.24-5.292 43.488-12.968 63.252-22.9 7.282-3.66 16.372-0.826 20.138 6.666 3.72 7.402 0.736 16.418-6.666 20.138-16.448 8.266-33.814 15.086-51.842 20.46 20.994 19.714 42.596 37.988 64.504 54.602 40.132-4.736 75.47-18.248 105.090-40.246 15.638-11.616 29.664-25.61 41.69-41.594 19.002-25.258 56.128-28.8 79.32-7.694 20.474 18.632 23.274 49.482 6.514 71.762-18.276 24.294-39.706 45.646-63.694 63.464-14.43 10.716-29.858 20.17-46.108 28.282 12.574 5.606 25.060 10.55 37.398 14.786 33.264 11.418 63.548 17.094 89.952 17.094 34.372 0 62.16-9.624 81.322-28.734 14.626-14.586 21.736-32.172 21.736-53.764 0-36.1-20.138-83.132-59.858-139.792-19.852-28.318-44.786-61.394-70.436-88.088-89.376-93.010-197.634-211.084-308.228-272.332z" />
<glyph unicode="&#xe919;" glyph-name="coffee-cup" d="M834.26 830.334h-1.756l-31.768 85.542c-2.062 5.55-7.194 9.368-13.104 9.748l-404.14 25.868c-8.25 0.512-15.398-5.744-15.928-14.012s5.744-15.398 14.012-15.928l394.426-25.248 24.5-65.97h-577.004l36.76 98.986 51.22-3.28c8.264-0.522 15.398 5.744 15.928 14.012s-5.744 15.398-14.012 15.928l-62.354 3.99c-6.628 0.418-12.714-3.54-15.020-9.748l-44.524-119.888h-1.756c-22.252 0-40.356-18.104-40.356-40.356v-96.988c0-8.284 6.716-15 15-15h36.038l7.172-99.116c-9.714 0.816-20.722-4.172-19.886-16.052l26.178-372.522c0.552-7.856 7.086-13.948 14.962-13.948h528.404l-11.11-153.554c-2.304-31.85-27.882-56.798-58.23-56.798h-351.824c-30.348 0-55.926 24.948-58.23 56.798l-7.010 96.896c-0.598 8.262-7.768 14.468-16.042 13.878-8.262-0.598-14.476-7.782-13.878-16.042l7.010-96.896c3.432-47.458 42.152-84.634 88.15-84.634h351.822c46 0 84.72 37.176 88.152 84.632l11.268 155.72c9.684-1.446 21.982 2.482 22.786 13.948l15.862 225.716c0.582 8.264-5.648 15.434-13.912 16.014-8.258 0.582-15.434-5.648-16.014-13.912l-14.882-211.768h-538.34l-24.070 342.522h586.482l-4.078-58.036c-0.582-8.264 5.648-15.434 13.912-16.014 8.274-0.586 15.434 5.648 16.014 13.912l5.206 74.086c0.836 11.88-10.172 16.868-19.886 16.052l7.172 99.116h36.038c8.284 0 15 6.716 15 15v96.988c-0.002 22.254-18.106 40.358-40.36 40.358zM786.33 578.874h-548.66l-7.172 99.116h563.002zM844.618 707.99h-665.236v81.986c0 5.71 4.646 10.356 10.356 10.356h644.522c5.71 0 10.356-4.646 10.356-10.356v-81.986zM512.128 493.040c-0.044 0-0.086 0.004-0.128 0.004-51.302 0-93.040-41.738-93.040-93.040v-44.78c0-51.296 41.726-93.030 93.020-93.040h0.020c51.302 0 93.040 41.738 93.040 93.040v44.78c0 51.194-41.562 92.854-92.716 93.030-0.066 0.002-0.13 0.006-0.196 0.006zM448.96 355.224v44.78c0 24.416 13.964 45.62 34.316 56.086-8.168-24.622-8.532-57.106 17.188-88.062 26.298-31.652 12.010-62.832 4.14-75.396-31.288 3.676-55.644 30.334-55.644 62.592zM575.040 400.004v-44.78c0-24.418-13.964-45.62-34.316-56.086 8.168 24.622 8.532 57.106-17.188 88.062-26.278 31.63-12.032 62.786-4.132 75.394 31.282-3.678 55.636-30.336 55.636-62.59z" />
<glyph unicode="&#xe91a;" glyph-name="coffee-cup2" d="M281.676 27.439c1.138-13.464 12.326-23.893 25.79-23.893h409.031c13.464 0 24.841 10.43 25.79 23.893l11.378 143.17h-483.366zM792.917 669.525h-561.873l10.43-132.361h541.013zM824.358 801.887h-47.066l-38.040 82.546c-2.257 4.892-7.13 8.002-12.516 8.002h-429.492c-5.385 0-10.259-3.129-12.516-8.002l-38.040-82.546h-47.066c-6.542 0-11.833-5.291-11.833-11.833v-80.213c0-6.542 5.291-11.833 11.833-11.833h624.735c6.542 0 11.833 5.291 11.833 11.833v80.213c0.019 6.542-5.291 11.833-11.833 11.833zM805.812 508.719h-587.662c-11.188 0-19.911-9.861-18.773-21.049l28.824-271.55c0.948-9.671 9.102-17.067 18.773-17.067h530.015c9.861 0 17.825 7.396 18.963 17.067l28.634 271.55c1.327 11.188-7.396 21.049-18.773 21.049zM458.221 407.817c35.366 35.366 86.926 41.244 117.191 14.26 0.265-5.196-0.474-13.691-6.485-21.845-10.923-14.772-35.48-23.457-70.959-25.145-24.993-1.157-44.203-10.088-57.116-26.567-6.068-7.756-10.031-16.441-12.591-25.126-4.779 27.61 5.367 59.828 29.961 84.423zM565.912 300.108c-33.868-34.039-82.167-40.96-112.943-17.92-1.043 10.866-1.517 33.716 10.278 48.792 7.661 9.785 19.437 14.924 36.011 15.682 45.435 2.143 76.705 14.677 92.975 37.281 1.081 1.517 1.82 3.034 2.731 4.551 6.732-28.444-3.205-62.673-29.051-88.386z" />
<glyph unicode="&#xe91b;" glyph-name="coffee-shop" d="M805.292 320.954c0.544 13.65 0.662 26.152 0.542 37.104-0.226 20.71-17.252 37.56-37.954 37.56h-504.45c-20.702 0-37.726-16.85-37.954-37.556-0.19-17.156 0.25-34.664 1.302-52.034 0.502-8.268 7.574-14.56 15.88-14.064 8.27 0.502 14.566 7.612 14.064 15.88-1.012 16.658-1.432 33.442-1.248 49.888 0.046 4.348 3.616 7.886 7.954 7.886h504.452c4.338 0 7.906-3.538 7.954-7.888 1.252-113.994-27.078-270.538-123.882-330.724h-272.592c-69.346 43.118-104.032 140.826-116.43 221.924-1.252 8.19-8.904 13.812-17.096 12.562-8.188-1.252-13.812-8.906-12.56-17.094 14.654-95.85 47.666-168.832 98.228-217.392h-60.732c-14.016 0-25.418-11.402-25.418-25.418 0-36.166 29.422-65.586 65.588-65.586h402.12c36.166 0 65.588 29.422 65.588 65.586 0 14.016-11.402 25.418-25.418 25.418h-53.43c4.668 4.494 9.188 9.198 13.56 14.118 19.88 8.506 44.122 16.032 72.134 22.382 81.488 18.466 127.592 78.666 143.568 128.844 14.052 44.144 8.29 86.266-15.418 112.678-25.852 28.798-69.91 38.238-108.352 15.926zM713.060-34h-402.12c-18.070 0-33.040 13.538-35.294 31.004h472.71c-2.256-17.466-17.226-31.004-35.296-31.004zM900.476 201.452c-13.458-42.27-52.47-93.020-121.61-108.688-12.104-2.742-23.574-5.71-34.382-8.882 18.46 30.912 32.948 67.306 43.306 108.976 7.594 30.544 12.158 60.682 14.806 88.246 30.074 30.090 67.096 27.976 88.726 3.884 16.278-18.136 19.786-50.144 9.154-83.536zM863.454 873.038h-323.336c-8.286 0-15-6.716-15-15s6.714-15 15-15h323.336c8.286 0 15 6.716 15 15s-6.716 15-15 15zM863.454 783.652h-161.668c-8.286 0-15-6.716-15-15s6.714-15 15-15h161.668c8.286 0 15 6.716 15 15s-6.716 15-15 15zM160.546 692.26h323.336c8.286 0 15 6.716 15 15s-6.714 15-15 15h-323.336c-8.286 0-15-6.716-15-15s6.716-15 15-15zM337.214 617.874c0 8.284-6.714 15-15 15h-161.668c-8.286 0-15-6.716-15-15s6.714-15 15-15h161.668c8.286 0 15 6.716 15 15zM301.828 513.172h248.162c32.99 0 59.828 26.838 59.828 59.83v176.392c0 32.99-26.838 59.83-59.828 59.83h-455.55c-32.99 0-59.828-26.838-59.828-59.83v-176.394c0-32.99 26.838-59.83 59.828-59.83h20.698l-39.21-100.568c-3.778-9.686-0.79-20.466 7.434-26.826 8.292-6.414 19.48-6.49 27.832-0.454l165.8 119.814c7.272 5.258 15.862 8.036 24.834 8.036zM112.206 423.070l33.816 86.73c6.256 16.038-5.598 33.372-22.804 33.372h-28.778c-16.448 0-29.828 13.38-29.828 29.83v176.392c0 16.448 13.38 29.83 29.828 29.83h455.55c16.448 0 29.828-13.38 29.828-29.83v-176.394c0-16.448-13.38-29.83-29.828-29.83h-248.162c-15.322 0-29.986-4.744-42.406-13.718zM929.56 960h-455.55c-32.99 0-59.828-26.838-59.828-59.83v-47.95c0-8.284 6.714-15 15-15s15 6.716 15 15v47.95c0 16.448 13.38 29.83 29.828 29.83h455.55c16.448 0 29.828-13.38 29.828-29.83v-176.392c0-16.448-13.38-29.83-29.828-29.83h-25.926c-8.734 0-16.89-4.306-21.818-11.516s-5.976-16.374-2.802-24.512l32.782-84.074-145.174 104.906c-13.756 9.942-29.996 15.196-46.968 15.196h-68.158c-8.286 0-15-6.716-15-15s6.714-15 15-15h68.158c10.624 0 20.788-3.288 29.396-9.51l163.758-118.336c8.342-6.028 19.526-5.972 27.834 0.454 8.222 6.36 11.21 17.14 7.434 26.828l-39.21 100.566h20.698c32.99 0 59.828 26.838 59.828 59.83v176.39c-0.004 32.992-26.842 59.83-59.832 59.83z" />
<glyph unicode="&#xe91c;" glyph-name="croissant" d="M876.14 320.854c15.446-10.346 33.75-16.112 52.698-16.112 52.472 0 95.162 42.69 95.162 95.162v32.064c0 52.472-42.69 95.162-95.162 95.162-13.002 0-25.694-2.704-37.432-7.802l1.636 21.256c1.002 13.028-3.514 26-12.394 35.586-8.878 9.588-21.464 15.086-34.532 15.086h-379.652c-13.068 0-25.654-5.5-34.534-15.086-8.878-9.586-13.396-22.558-12.394-35.586l10.406-135.28c-22.476 6.312-46.212 9.598-70.174 9.598h-0.808c-37.376 0-74.22-7.954-106.552-23.004-10.916-5.082-18.16-15.266-19.632-26.752-59.294-11.848-100.42-40.504-120.106-57.036-13.394-11.248-16.196-30.68-6.516-45.196l3.764-5.646-40.592-46.392c-9.14-10.446-15.674-22.872-19.264-36.458h-35.062c-4.978 0-9.63-2.468-12.42-6.59-2.792-4.122-3.354-9.358-1.506-13.98l19.97-49.926c9.638-24.094 32.634-39.664 58.584-39.664h864.744c25.95 0 48.946 15.568 58.584 39.664l19.97 49.926c1.848 4.622 1.286 9.86-1.506 13.98-2.79 4.122-7.444 6.59-12.42 6.59h-157.85c9.58 12.002 15.788 26.828 17.038 43.060l7.952 103.376zM888.61 482.964c11.534 9.164 25.62 14.164 40.228 14.164 35.93 0 65.162-29.232 65.162-65.162v-32.064c0-35.93-29.232-65.162-65.162-65.162-19.208 0-37.466 8.694-49.826 23.456l9.598 124.768zM131.964 285.138c17.080 14.344 52.394 38.998 103.37 49.914l0.604-5.028c0.986-8.226 8.458-14.086 16.68-13.106 8.226 0.988 14.092 8.456 13.106 16.68l-3.202 26.674c-0.22 1.836 0.802 3.616 2.546 4.428 28.394 13.216 60.86 20.202 93.892 20.202h0.808c33.032 0 65.498-6.986 93.89-20.202 1.744-0.812 2.768-2.59 2.546-4.432l-22.298-185.852h-149.082l-11.176 93.15c-0.988 8.224-8.448 14.090-16.68 13.106-8.224-0.988-14.092-8.456-13.106-16.68l10.748-89.576h-53.4l-70.090 105.138c-1.208 1.812-0.852 4.16 0.844 5.584zM91.906 191.124l35.254 40.29 37.996-56.994h-83.492c2.502 6.124 5.922 11.768 10.242 16.704zM863.134 542.882l-24.858-323.102c-1.958-25.436-23.474-45.362-48.984-45.362h-4.74c-8.284 0-15-6.716-15-15s6.716-15 15-15h202.292l-11.742-29.356c-5.056-12.638-17.118-20.806-30.73-20.806h-864.744c-13.612 0-25.674 8.166-30.73 20.806l-11.742 29.356h683.262c8.284 0 15 6.716 15 15s-6.716 15-15 15h-51.75c-3.588 13.586-10.124 26.014-19.264 36.46l-40.592 46.39 3.764 5.646c9.678 14.518 6.876 33.948-6.516 45.198-19.684 16.53-60.812 45.186-120.106 57.034-1.472 11.486-8.716 21.67-19.632 26.752-1.8 0.838-3.618 1.646-5.444 2.438l-11.426 148.546c-0.37 4.792 1.226 9.376 4.494 12.904s7.714 5.47 12.522 5.47h379.652c4.808 0 9.254-1.942 12.52-5.47s4.862-8.11 4.494-12.904zM587.614 279.556l-70.092-105.138h-53.4l19.272 160.634c50.978-10.916 86.292-35.57 103.372-49.912 1.698-1.426 2.054-3.774 0.848-5.584zM591.574 231.412l35.252-40.288c4.318-4.936 7.738-10.58 10.242-16.706h-83.49l37.996 56.994zM666.428 739.668c-7.746 7.104-11.17 10.574-11.17 18.354 0 7.75 3.422 11.21 11.162 18.298 8.822 8.078 20.902 19.14 20.902 40.424 0 8.284-6.716 15-15 15s-15-6.716-15-15c0-7.75-3.422-11.21-11.162-18.298-8.822-8.078-20.902-19.14-20.902-40.422 0-21.3 12.076-32.376 20.894-40.462 7.746-7.104 11.17-10.574 11.17-18.354 0-7.786-3.424-11.254-11.17-18.358-8.818-8.086-20.894-19.164-20.894-40.462 0-8.284 6.716-15 15-15s15 6.716 15 15c0 7.78 3.424 11.25 11.17 18.354 8.818 8.086 20.894 19.164 20.894 40.462 0 21.3-12.076 32.376-20.894 40.464zM607.978 708.358c-11.18 14.526-16.848 31.234-16.848 49.658 0 7.852 1.024 15.444 3.044 22.566 2.26 7.97-2.368 16.264-10.336 18.524-7.966 2.256-16.264-2.368-18.524-10.336-2.776-9.786-4.184-20.134-4.184-30.754 0-25.198 7.764-48.060 23.076-67.954 2.952-3.842 7.398-5.854 11.896-5.854 3.194 0 6.412 1.016 9.138 3.114 6.566 5.052 7.792 14.47 2.738 21.036zM734.774 757.988c7.794 12.436 12.902 25.956 15.224 40.326 1.322 8.178-4.238 15.878-12.416 17.2-8.178 1.33-15.88-4.236-17.2-12.416-2.102-13.004-7.404-25.106-15.758-35.968-4.146-5.39-4.148-12.898 0-18.29 11.166-14.52 16.828-31.218 16.828-49.63 0-12.948-2.788-25.086-8.288-36.078-3.706-7.408-0.706-16.42 6.704-20.126 2.154-1.078 4.444-1.588 6.7-1.588 5.5 0 10.798 3.038 13.426 8.292 7.602 15.196 11.458 31.85 11.458 49.5 0 21.408-5.604 41.128-16.678 58.778z" />
<glyph unicode="&#xe91d;" glyph-name="cup" d="M906.541 26.353h-268.047c42.165 33.129 75.294 75.294 96.376 123.482 114.447 18.071 204.8 117.459 204.8 234.918 0 69.271-54.212 123.482-123.482 123.482h-57.224v60.235c0 18.071-15.059 30.118-30.118 30.118h-542.118c-18.071 0-30.118-12.047-30.118-30.118v-304.188c0-96.376 48.188-183.718 120.471-237.929h-159.624c-18.071 0-30.118-12.047-30.118-30.118s12.047-30.118 30.118-30.118h789.082c18.071 0 30.118 12.047 30.118 30.118s-15.059 30.118-30.118 30.118zM755.953 264.282v183.718h57.224c36.141 0 63.247-30.118 63.247-63.247 0-78.306-51.2-147.576-123.482-168.659 0 18.071 3.012 33.129 3.012 48.188zM454.776 86.588c-99.388 0-180.706 81.318-180.706 180.706v33.129c0 18.071 12.047 30.118 30.118 30.118s30.118-12.047 30.118-30.118v-33.129c0-66.259 54.212-120.471 120.471-120.471 18.071 0 30.118-12.047 30.118-30.118s-12.047-30.118-30.118-30.118zM283.106 679.906c-12.047-12.047-12.047-30.118 0-42.165s30.118-12.047 42.165 0c39.153 39.153 21.082 99.388-12.047 135.529-9.035 15.059 12.047 36.141 18.071 57.224 9.035 15.059 0 33.129-15.059 39.153-15.059 3.012-33.129-3.012-39.153-21.082-3.012-12.047-45.176-60.235-12.047-111.435 6.024-6.024 36.141-39.153 18.071-57.224zM436.706 740.141c-12.047-12.047-12.047-30.118 0-42.165s30.118-12.047 42.165 0c39.153 39.153 21.082 99.388-12.047 135.529-6.024 15.059 15.059 36.141 21.082 57.224 6.024 15.059-3.012 33.129-18.071 39.153s-33.129-3.012-39.153-18.071c-3.012-9.035-48.188-81.318-6.024-117.459 6.024-9.035 27.106-39.153 12.047-54.212zM590.306 679.906c-12.047-12.047-12.047-30.118 0-42.165s30.118-12.047 42.165 0c39.153 39.153 21.082 99.388-12.047 135.529-9.035 15.059 12.047 36.141 18.071 57.224 6.024 15.059-3.012 33.129-18.071 39.153s-33.129-3.012-39.153-18.071c-3.012-12.047-45.176-60.235-12.047-111.435 9.035-9.035 39.153-42.165 21.082-60.235z" />
<glyph unicode="&#xe91e;" glyph-name="cup2" d="M790.071 880.981c35.7-35.7 47.276-82.004 25.856-103.424s-67.724-9.844-103.424 25.856c-35.7 35.7-47.276 82.004-25.856 103.424s67.724 9.844 103.424-25.856zM324.37 658.615c44.346-81.885 99.638-157.349 164.352-224.311-0.823 12.8-0.914 25.6-0.896 38.51 0 40.229 0.11 81.737-24.686 114.926-33.052 43.523-84.135 69.613-138.77 70.875zM67.218 688.238c8.085 16.32 22.4 28.698 39.717 34.341 16.313 4.845 33.891 2.9 48.75-5.394 17.163-9.91 32.256-23.035 44.453-38.656 10.971 16.823 21.778 32.165 31.689 45.714-24.887 29.673-58.913 50.253-96.75 58.514-32.681 4.021-65.278-8.091-87.406-32.475-39.481-37.204-56.041-92.687-43.41-145.445 9.422-36.69 28.836-70.049 56.082-96.366 12.569-12.519 26.407-23.697 41.289-33.353 5.65 18.286 12.105 36.297 19.145 53.723-49.463 37.486-84.974 100.023-53.559 159.397zM492.453 609.627c32.055-42.953 32-92.837 31.945-136.85 0-38.839-0.091-72.375 20.663-93.787 17.371-18.030 49.682-28.050 98.853-30.683 55.633-4.829 111.409 7.507 159.817 35.346-39.883 52.315-83.258 101.872-129.829 148.334-184.393 184.174-338.981 255.817-368.53 226.194-12.178-12.178-2.505-46.446 3.273-62.72 71.514 2.645 139.928-29.302 183.808-85.833zM505.655 363.886c-107.886 107.886-192.64 222.336-226.542 305.938-5.328 12.818-9.549 26.069-12.617 39.607-90.002-119.717-265.143-410.258-45.239-630.071s510.519-44.599 630.181 45.349c-89.362 19.602-224.585 120.375-333.605 227.163zM453.705 130.853c-33.133-34.719-78.554-55.070-126.519-56.686-20.64-0.191-40.962 5.090-58.898 15.305-0.311 0.128-0.585 0.311-0.878 0.439-7.271 4.182-13.991 9.256-20.005 15.104-49.774 50.011-38.144 142.629 25.893 206.373s156.325 75.63 206.281 25.893 38.144-142.61-25.874-206.427zM929.938 672.75c-14.416 8.162-32.261 7.198-45.714-2.469-7.515-8.814-4.718-26.277 7.461-46.702 53.822-86.154 31.635-199.283-50.743-258.725l-0.201-0.146c-57.867-40.669-128.324-59.403-198.747-52.846-10.642 0.567-20.425 1.591-29.806 2.816 34.338-30.107 70.397-58.193 107.995-84.114 62.545 5.893 120.443 35.562 161.755 82.889 4.077 5.285 10.711 7.928 17.306 6.896s12.103-5.576 14.371-11.854c2.267-6.278 0.934-13.293-3.479-18.301-37.426-44.267-88.142-75.268-144.603-88.393 65.042-38.107 111.927-50.816 130.578-41.088 0.859 0.627 1.764 1.189 2.706 1.682 0.402 0.384 0.951 0.549 1.39 0.914s0.457 0.75 0.786 1.042c42.258 36.974 114.341 123.191 122.514 285.038 6.802 134.693-46.153 204.507-93.568 223.36zM450.322 287.086c-3.731-44.86-39.359-80.442-84.224-84.114-28.803-1.327-51.863-24.356-53.23-53.157-1.231-12.526-4.758-24.719-10.405-35.968 37.193-10.971 87.113 4.48 125.367 42.843 48.713 48.549 60.745 115.877 28.032 152.174-2.914-6.945-4.782-14.285-5.541-21.778zM360.887 239.195c28.803 1.327 51.863 24.356 53.23 53.157 1.253 12.455 4.753 24.579 10.331 35.785-8.043 2.461-16.403 3.73-24.814 3.767-38.28-1.833-74.346-18.482-100.571-46.427-48.677-48.494-60.69-115.822-27.977-152.119 2.891 6.931 4.739 14.251 5.486 21.723 3.715 44.861 39.341 80.448 84.206 84.114z" />
<glyph unicode="&#xe91f;" glyph-name="e-mail" d="M719.151 270.725h-414.319c-27.79 0.037-50.307 22.558-50.34 50.345v260.459c0.033 27.789 22.551 50.307 50.337 50.34h414.322c27.789-0.033 50.307-22.551 50.34-50.337v-260.459c-0.033-27.79-22.55-50.311-50.336-50.348h-0.004zM304.833 599.077c-9.692-0.009-17.549-7.857-17.572-17.545v-260.458c0.009-9.703 7.87-17.566 17.57-17.58h414.32c9.702 0.014 17.563 7.877 17.572 17.579v260.457c-0.009 9.701-7.871 17.563-17.571 17.572h-0.001zM512 388.846c-0.007 0-0.015 0-0.023 0-4.156 0-7.95 1.553-10.832 4.111l-228.204 201.434 21.684 24.576 217.375-191.881 217.35 191.865 21.684-24.576-228.213-201.425c-2.866-2.547-6.662-4.103-10.821-4.104v0zM127.082 25.211c-17.696 0.105-32.001 14.475-32.001 32.186 0 2.957 0.399 5.821 1.146 8.541l-0.053-0.226 47.62 177.766c0.334 1.284 0.526 2.758 0.526 4.277 0 3.182-0.843 6.167-2.317 8.744l0.046-0.086c-31.942 57.885-50.738 126.889-50.738 200.283 0 232.328 188.339 420.667 420.667 420.667s420.667-188.339 420.667-420.667c0-9.389-0.308-18.706-0.913-27.942l0.066 1.256c-14.488-220.521-196.904-393.901-419.815-393.901-64.32 0-125.269 14.435-179.782 40.243l2.556-1.089c-2.237 1.107-4.87 1.754-7.655 1.754-1.526 0-3.007-0.195-4.42-0.56l0.122 0.027-187.261-50.192c-2.505-0.687-5.381-1.082-8.349-1.082-0.040 0-0.079 0-0.119 0h0.006zM511.746 844.583q-4.719 0-9.445-0.123c-202.768-4.956-372.359-173.883-378.028-376.545-0.105-3.372-0.165-7.337-0.165-11.316 0-67.619 17.31-131.195 47.741-186.539l-1.012 2.008c3.939-7.001 6.259-15.367 6.259-24.276 0-4.545-0.604-8.949-1.736-13.136l0.081 0.352-47.333-176.742 186.204 49.914c3.835 1.045 8.238 1.646 12.781 1.646 7.813 0 15.212-1.776 21.814-4.947l-0.303 0.131c47.905-22.789 104.1-36.097 163.402-36.097 205.515 0 373.699 159.827 387.039 361.966l0.062 1.164c0.56 7.77 0.879 16.835 0.879 25.974 0 104.151-41.419 198.628-108.684 267.858l0.089-0.092c-70.804 73.231-169.903 118.72-279.627 118.8h-0.015z" />
<glyph unicode="&#xe920;" glyph-name="feedback" d="M512 708.551c-107.453 0-194.56-87.107-194.56-194.56s87.107-194.56 194.56-194.56c107.453 0 194.56 87.107 194.56 194.56v0c0 107.453-87.107 194.56-194.56 194.56v0zM448 605.013c17.909 0 32.427-14.518 32.427-32.427s-14.518-32.427-32.427-32.427v0c-17.909 0-32.427 14.518-32.427 32.427s14.518 32.427 32.427 32.427v0zM580.551 431.218c-17.377-17.477-41.401-28.33-67.96-28.444h-0.022c-53.255 0-96.427 43.172-96.427 96.427v0h193.138c-0.148-26.575-10.992-50.589-28.442-67.98l-0.003-0.003zM576.569 540.16c-17.909 0-32.427 14.518-32.427 32.427s14.518 32.427 32.427 32.427c17.909 0 32.427-14.518 32.427-32.427v0c0 0 0-0.001 0-0.001 0-17.809-14.356-32.264-32.127-32.425h-0.015zM927.858 865.28c-23.37 23.374-55.658 37.831-91.322 37.831-0.095 0-0.189 0-0.284 0h-648.518c-0.338 0.003-0.738 0.005-1.138 0.005-71.635 0-129.707-58.072-129.707-129.707 0-0.002 0-0.004 0-0.005v0-519.111c0-0.001 0-0.003 0-0.005 0-71.635 58.072-129.707 129.707-129.707 0.4 0 0.8 0.002 1.199 0.005h32.366v-99.271c0.095-12.367 7.159-23.062 17.455-28.36l0.18-0.084c4.312-2.266 9.421-3.595 14.841-3.595 7.141 0 13.743 2.308 19.1 6.219l-0.092-0.064 175.787 125.44h388.836c0.17-0.001 0.371-0.001 0.572-0.001 71.65 0 129.79 57.842 130.273 129.378v519.157c-0.381 36.033-15.331 68.5-39.228 91.851l-0.025 0.024zM512 254.293c-143.27 0-259.413 116.143-259.413 259.413s116.143 259.413 259.413 259.413c143.27 0 259.413-116.143 259.413-259.413v0c0-143.27-116.143-259.413-259.413-259.413v0z" />
<glyph unicode="&#xe921;" glyph-name="hot-coffee" d="M130.263-19.571h139.432c1.938-12.147 12.005-21.647 24.72-21.647h317.008c12.762 0 22.782 9.453 24.72 21.647h139.432c23.585 0 42.68 19.095 42.68 42.68h-730.625c0-23.585 19.095-42.68 42.633-42.68zM986.188 419.097c-35.543 28.784-85.597 29.257-118.541 25.618 0.945 22.971 1.465 46.462 1.465 70.898h-869.112c0-234.908 35.543-404.401 260.478-467.642h348.155c89.095 25.003 148.176 67.022 187.359 122.889 85.361 1.654 222.666 35.26 227.818 153.139 2.221 51.614-19.237 80.256-37.623 95.098zM831.773 238.261c16.354 42.019 26.043 89.284 31.384 141.228 23.065 3.781 62.815 6.192 82.903-10.162 3.687-3.025 15.172-12.383 13.849-42.586-2.694-61.067-78.507-81.58-128.136-88.48zM354.063 548.604c0 0 165.428 12.147 89.615 151.627-60.878 111.971-46.982 177.67 30.911 237.035 0 0-255.137-64.99-106.347-266.103 54.591-87.63-14.18-122.559-14.18-122.559zM465.562 559.759c0 0 132.532 27.934 60.405 134.517-26.185 46.225 9.926 62.721 9.926 62.721s-85.314-2.694-49.298-76.002c28.832-58.94 20.277-92.403-21.033-121.235z" />
<glyph unicode="&#xe923;" glyph-name="marketing" d="M756.608 564.272l4.176 2.416c29.2 16.224 39.696 53.056 23.472 82.256s-53.056 39.696-82.256 23.472c-0.576-0.32-1.136-0.64-1.696-0.976l-4.16-2.4-69.84 120.96c-16.528 29.024-53.456 39.168-82.48 22.64-25.488-14.512-36.896-45.216-27.056-72.848l-83.040-105.6c-37.728-48.016-84.304-88.368-137.216-118.848l-148.368-85.68c-50.128-29.040-67.312-93.168-38.4-143.376l22.272-38.448c13.856-24.16 36.8-41.776 63.728-48.912 8.912-2.384 18.096-3.6 27.328-3.6 18.384 0.016 36.432 4.88 52.32 14.112l24.656 14.224 80.96-140.208c2.864-4.96 8.144-8 13.872-8 2.8 0.016 5.568 0.736 8 2.128l48.128 27.856c23.584 13.664 31.664 43.824 18.064 67.44l-64.304 111.248 18.976 10.944c52.848 30.592 111.088 50.752 171.536 59.408l132.928 19.2c21.744-25.344 59.92-28.256 85.264-6.512 22.112 18.96 27.552 50.992 12.944 76.192zM716.304 643.712c13.616 7.856 31.024 3.184 38.896-10.432 7.824-13.616 3.168-31.008-10.416-38.896l-4.16-2.4-28.48 49.328zM259.392 237.12c-34.896-20.144-79.52-8.192-99.664 26.704l-22.16 38.496c-20.144 34.896-8.176 79.504 26.704 99.664l101.616 58.64 95.184-164.8zM441.344 156.8c4.784-8.32 1.92-18.944-6.4-23.728l-34.288-19.792-72.944 126.4 49.312 28.464zM590.752 386.16c-64.48-9.248-126.592-30.752-182.976-63.376l-19.008-10.96-95.152 164.8 18.96 10.944c56.432 32.528 106.128 75.568 146.368 126.8l74.416 94.592 176.512-305.632zM801.568 405.696c-4.064-15.184-19.664-24.208-34.864-20.128-7.296 1.952-13.536 6.736-17.296 13.28l-200.144 346.576c-7.616 13.76-2.64 31.088 11.104 38.72 13.424 7.44 30.32 2.896 38.224-10.256l200.128-346.624c3.792-6.512 4.816-14.288 2.848-21.568zM887.76 709.488c-4.416 7.648-14.208 10.272-21.856 5.856l-38.512-22.24c-7.68-4.368-10.368-14.128-6-21.824s14.128-10.368 21.824-6c0.064 0.032 0.128 0.064 0.176 0.112l38.512 22.224c7.648 4.416 10.288 14.192 5.872 21.856-0.016 0-0.016 0.016-0.016 0.016zM781.184 731.872c1.36-0.368 2.752-0.56 4.16-0.56 7.232 0.016 13.568 4.88 15.44 11.872l11.52 42.96c2.288 8.544-2.768 17.312-11.312 19.6s-17.312-2.768-19.6-11.312l-11.52-42.96c-2.288-8.528 2.768-17.312 11.312-19.6zM916.368 605.632l-42.944 11.52c-8.544 2.288-17.312-2.768-19.6-11.312s2.768-17.312 11.312-19.6l42.96-11.52c1.36-0.368 2.752-0.56 4.16-0.56 8.832-0.016 16.016 7.12 16.032 15.968 0.016 7.28-4.88 13.648-11.92 15.504z" />
<glyph unicode="&#xe924;" glyph-name="pin" d="M512 857.6c-180.973 0-327.68-146.707-327.68-327.68v0c-0.001-0.319-0.002-0.696-0.002-1.074 0-84.64 32.374-161.719 85.415-219.529l-0.216 0.239 226.918-263.987c3.779-4.4 9.348-7.17 15.565-7.17s11.786 2.77 15.542 7.142l0.023 0.027 226.918 263.987c52.825 57.572 85.199 134.65 85.199 219.291 0 0.378-0.001 0.755-0.002 1.133v-0.059c0 180.973-146.707 327.68-327.68 327.68v0zM723.354 336.179l-211.354-245.965-211.354 245.76c-46.726 50.843-75.366 118.95-75.366 193.747 0 158.351 128.369 286.72 286.72 286.72s286.72-128.369 286.72-286.72c0-74.797-28.641-142.904-75.554-193.954l0.187 0.207zM512 673.28c-79.176 0-143.36-64.184-143.36-143.36s64.184-143.36 143.36-143.36c79.176 0 143.36 64.184 143.36 143.36v0c0 79.176-64.184 143.36-143.36 143.36v0zM512 427.52c-56.554 0-102.4 45.846-102.4 102.4s45.846 102.4 102.4 102.4c56.554 0 102.4-45.846 102.4-102.4v0c0-56.554-45.846-102.4-102.4-102.4v0z" />
<glyph unicode="&#xe925;" glyph-name="price-tag" d="M898.136 184c8.284 0 15 6.716 15 15v360c0 17.904-6.978 36.218-19.648 51.568l-111.246 134.788c-5.828 7.062-12.528 13.014-19.804 17.754 0.446 4.584 0.7 9.214 0.7 13.888v168c0 8.284-6.716 15-15 15s-15-6.716-15-15c0 0-0.030-169.43-0.042-170.146-4.268 0.756-8.6 1.146-12.958 1.146h-194c-13.658 0-27.046-3.832-39.032-10.874-0.518-0.186-1.032-0.394-1.536-0.64l-146.222-71.224c-16.2-8.126-29.154-21.756-36.48-38.378-0.080-0.182-0.156-0.364-0.228-0.548l-60.456-153.344c-3.038-7.708 0.746-16.418 8.454-19.458 1.806-0.712 3.666-1.048 5.498-1.048 5.98 0 11.632 3.602 13.958 9.502l60.338 153.048c4.538 10.138 12.472 18.444 22.21 23.332l77.256 37.63-77.112-93.43c-11.546-13.988-17.648-31.822-17.648-51.57v-518c0-6.032 0.53-11.938 1.492-17.694l-154.564 68.488c-34.916 15.47-50.74 56.564-35.268 91.604 0.066 0.152 0.13 0.306 0.194 0.458l97.766 242.968c3.092 7.686-0.63 16.422-8.316 19.516-7.69 3.092-16.422-0.632-19.516-8.316l-97.68-242.742c-21.964-50.1 0.724-108.784 50.666-130.912l181.248-80.312c0.222-0.098 0.448-0.17 0.672-0.256 18.396-28.744 50.2-47.798 86.306-47.798h370c56.916 0 105 48.084 105 105v88c0 8.284-6.716 15-15 15s-15-6.716-15-15v-88c0-40.654-34.346-75-75-75h-370c-40.252 0-73 33.644-73 75v518c0 12.876 3.628 23.802 10.786 32.472l111.246 134.788c10.354 12.544 24.558 19.74 38.968 19.74h194c2.826 0 5.642-0.286 8.424-0.826-9.39-32.022-32.65-58.742-64.060-72.132-8.214 13.738-23.23 22.958-40.366 22.958-25.916 0-47-21.084-47-47s21.084-47 47-47c23.966 0 43.786 18.036 46.636 41.246 40.398 15.28 70.946 47.656 84.556 87.174 1.306-1.314 2.57-2.696 3.778-4.16l111.246-134.79c8.244-9.988 12.786-21.52 12.786-32.472v-360c-0.002-8.282 6.714-14.998 14.998-14.998zM624.136 632c-9.374 0-17 7.626-17 17s7.626 17 17 17 17-7.626 17-17-7.626-17-17-17zM494.136 162c3.838 0 7.678 1.464 10.606 4.394l256 256c5.858 5.858 5.858 15.356 0 21.212-5.858 5.858-15.356 5.858-21.212 0l-256-256c-9.564-8.914-2.226-26.060 10.606-25.606zM526.136 320c35.84 0 65 29.16 65 65s-29.16 65-65 65h-2c-35.84 0-65-29.16-65-65s29.16-65 65-65zM489.136 385c0 19.298 15.702 35 35 35h2c19.298 0 35-15.702 35-35s-15.702-35-35-35h-2c-19.298 0-35 15.702-35 35zM720.136 162h2c35.84 0 65 29.16 65 65s-29.16 65-65 65h-2c-35.84 0-65-29.16-65-65s29.16-65 65-65zM720.136 262h2c19.298 0 35-15.702 35-35s-15.702-35-35-35h-2c-19.298 0-35 15.702-35 35s15.702 35 35 35z" />
<glyph unicode="&#xe926;" glyph-name="profile" d="M953.696 627.488c-5.984 14.752-22.848 21.856-37.536 15.776-14.72-6.016-21.824-22.816-15.776-37.536 20.416-50.176 30.816-103.232 30.816-157.728 0-231.168-188.032-419.2-419.2-419.2s-419.2 188.032-419.2 419.2 188.032 419.2 419.2 419.2c18.048 0 37.632-1.312 58.112-3.904 15.392-2.016 30.176 9.12 32.192 24.928 2.016 15.776-9.152 30.176-24.928 32.192-22.88 2.912-44.864 4.384-65.376 4.384-262.912 0-476.8-213.888-476.8-476.8s213.888-476.8 476.8-476.8 476.8 213.888 476.8 476.8c0 61.984-11.808 122.368-35.104 179.488zM787.616 646.784c2.848-0.896 5.824-1.376 8.736-1.376 2.976 0 5.92 0.48 8.768 1.376 63.168 20.224 159.168 86.048 147.712 176.768-5.536 43.872-31.392 77.376-69.152 89.6-29.248 9.472-60.96 4.32-87.328-13.184-26.368 17.504-58.080 22.56-87.36 13.184-37.76-12.224-63.616-45.728-69.152-89.632-11.456-90.816 84.576-156.576 147.776-176.736zM726.72 858.336c4 1.28 8.096 1.92 12.192 1.92 12.8 0 25.792-6.080 36.416-17.472 10.944-11.68 31.2-11.68 42.112 0 14.048 15.072 32.224 20.768 48.608 15.552 16.16-5.248 27.008-20.576 29.728-42.016 6.176-49.376-52.8-93.856-99.392-111.616-46.56 17.76-105.6 62.144-99.36 111.584 2.656 21.504 13.504 36.8 29.696 42.048zM374.88 565.92c0-75.584 61.536-137.12 137.12-137.12s137.12 61.536 137.12 137.12-61.536 137.12-137.12 137.12-137.12-61.536-137.12-137.12zM591.488 565.92c0-43.84-35.648-79.488-79.488-79.488s-79.488 35.648-79.488 79.488 35.648 79.488 79.488 79.488 79.488-35.648 79.488-79.488zM622.080 392.512h-220.16c-32.352 0-61.856-17.792-76.96-46.336-15.168-28.64-13.248-63.008 5.664-90.912 18.336-26.912 45.792-45.28 77.312-51.744 33.984-6.976 68.96-10.56 104.064-10.56s70.112 3.552 104.032 10.528c31.552 6.464 59.072 24.864 77.408 51.808 0 0 0.672 1.056 0.672 1.088 18.176 26.752 20.096 61.12 4.96 89.728s-44.608 46.4-76.992 46.4zM646.112 288.256l-0.48-0.736c-9.888-14.368-24.512-24.16-41.216-27.552-60.256-12.416-124.576-12.416-184.928 0-16.768 3.424-31.424 13.28-42.016 28.8-6.24 9.216-6.88 20.608-1.664 30.432 2.464 4.704 10.016 15.68 26.048 15.68h220.192c11.136 0 20.864-5.888 26.080-15.68 2.56-4.736 7.392-17.152-2.016-30.944z" />
<glyph unicode="&#xe927;" glyph-name="phone" d="M582.882 959.999c-11.047 0-20-8.953-20-20s8.953-20 20-20c221.179 0 401.117-179.945 401.117-401.117 0-11.047 8.961-20 20-20 11.047 0 20 8.953 20 20 0 243.226-197.883 441.117-441.117 441.117zM883.686 498.875c11.047 0 20 8.961 20 20 0 176.898-143.914 320.812-320.804 320.812-11.047 0-20-8.961-20-20 0-11.047 8.953-20 20-20 154.836 0 280.804-125.969 280.804-280.812 0-11.039 8.953-20 20-20zM743.351 518.875c0-11.039 8.953-20 20-20s20 8.961 20 20c0 110.539-89.93 200.468-200.468 200.468-11.047 0-20-8.953-20-19.992 0-11.047 8.953-20 20-20 88.484 0 160.469-71.984 160.469-160.476zM562.882 579.031c0-11.039 8.953-19.992 20-19.992 22.141 0 40.156-18.016 40.156-40.164 0-11.039 8.953-20 20-20 11.039 0 20 8.961 20 20 0 44.203-35.961 80.156-80.156 80.156-11.047 0-20-8.953-20-20zM374.867 310.641c0-11.047-8.953-20-20-20s-20 8.953-20 20c0 11.039 8.953 20 20 20s20-8.961 20-20zM548.062-39.718c91.070-44.633 200.633-26.062 272.648 45.953l41.352 41.352c22.453 22.43 22.461 58.766 0.008 81.211l-159.781 159.765c-22.414 22.445-58.758 22.477-81.195 0.008l-67.891-67.898c-13.297-13.297-33.82-16.008-48.789-6.453-24.406 15.602-48.148 32.805-70.562 51.133-8.555 6.992-21.148 5.727-28.141-2.82-6.992-8.555-5.727-21.156 2.82-28.141 23.617-19.312 48.625-37.437 74.351-53.875 30.664-19.586 72.133-14.594 98.601 11.875l67.906 67.906c6.789 6.797 17.789 6.812 24.609-0.008l159.789-159.773c6.805-6.812 6.82-17.828 0-24.633l-41.359-41.367c-59.992-59.992-151.117-75.391-226.765-38.32-277.132 135.898-427.913 351.382-505.601 508.226-37.164 75.008-21.734 165.789 38.398 225.906l40.453 40.445c6.781 6.797 17.789 6.82 24.602-0.008l159.804-159.797c6.766-6.758 6.836-17.773-0.016-24.609l-67.891-67.898c-26.469-26.469-31.461-67.937-11.875-98.609 11.539-18.055 23.977-35.867 36.977-52.937 6.687-8.789 19.234-10.484 28.023-3.797s10.492 19.234 3.797 28.031c-12.328 16.195-24.141 33.102-35.094 50.234-9.555 14.977-6.844 35.5 6.453 48.797l67.883 67.883c22.445 22.414 22.469 58.766 0.016 81.195l-159.789 159.781c-22.406 22.445-58.758 22.477-81.187 0.008l-40.437-40.437c-72.281-72.258-90.75-181.547-45.961-271.945 80.445-162.398 236.617-385.539 523.843-526.382z" />
<glyph unicode="&#xe928;" glyph-name="right-arrow" d="M1017.232 464.407v0l-232.722 232.724c-8.36 9.762-23.052 10.9-32.813 2.538-9.762-8.36-10.9-23.052-2.538-32.813 0.78-0.91 1.628-1.76 2.538-2.538l192.927-193.161h-921.352c-12.852 0-23.272-10.42-23.272-23.274s10.42-23.272 23.272-23.272h921.352l-192.927-192.927c-9.762-8.36-10.9-23.052-2.538-32.813s23.052-10.9 32.813-2.538c0.91 0.78 1.76 1.628 2.538 2.538l232.724 232.724c9.022 9.074 9.022 23.734-0.002 32.811z" />
<glyph unicode="&#xe92a;" glyph-name="shopping-bag" d="M917.464 115.576l-45.724 576.218c-2.838 37.126-34.248 66.196-71.474 66.196h-90.328v-133.834c0-16.574-13.416-29.99-29.99-29.99-16.554 0-29.99 13.416-29.99 29.99v133.834h-275.902v-133.834c0-16.574-13.436-29.99-29.99-29.99-16.574 0-29.99 13.416-29.99 29.99v133.834h-90.328c-37.226 0-68.636-29.070-71.474-66.116l-45.744-576.378c-3.538-46.164 12.476-92.108 43.924-126.056 31.45-33.946 76.034-53.44 122.318-53.44h478.472c46.284 0 90.868 19.494 122.318 53.442 31.448 33.948 47.462 79.892 43.902 126.134zM647.12 409.014l-155.106-155.106c-5.858-5.858-13.536-8.796-21.212-8.796-7.678 0-15.354 2.938-21.212 8.796l-72.694 72.694c-11.716 11.716-11.716 30.69 0 42.406s30.71 11.716 42.406 0l51.502-51.482 133.912 133.912c11.696 11.696 30.69 11.696 42.406 0 11.714-11.716 11.714-30.708-0.002-42.424zM512.008 960c-109.142 0-197.93-88.808-197.93-197.95v-4.058h59.98v4.058c0 76.074 61.878 137.972 137.952 137.972s137.952-61.898 137.952-137.972v-4.058h59.978v4.058c-0.002 109.142-88.79 197.95-197.932 197.95z" />
<glyph unicode="&#xe92b;" glyph-name="tag1" d="M1024 890.24c0.078 18.698-7.138 36.252-20.318 49.432s-30.768 20.384-49.43 20.316c-18.644-0.078-36.196-7.404-49.422-20.628-5.6-5.6-15.786-17.696-21.358-24.41-5.852-7.050-4.884-17.51 2.166-23.36 7.048-5.852 17.508-4.884 23.36 2.166 8.728 10.512 15.942 18.79 19.292 22.142 6.996 6.994 16.264 10.87 26.1 10.912 0.054 0 0.104 0 0.158 0 9.724 0 18.838-3.76 25.674-10.598 6.874-6.874 10.64-16.048 10.598-25.832-0.042-9.834-3.918-19.102-10.912-26.1-6.262-6.262-27.786-23.336-58.624-44.878-18.242 31.188-52.074 52.198-90.74 52.198h-242.928c-32.792 0-63.62-12.77-86.81-35.956l-485.58-485.586c-9.818-9.818-15.226-22.872-15.226-36.756s5.408-26.94 15.226-36.756l325.334-325.334c10.136-10.134 23.444-15.2 36.756-15.2s26.624 5.068 36.756 15.2l485.584 485.582c23.186 23.188 35.956 54.016 35.956 86.81v242.926c0 7.17-0.726 14.17-2.102 20.94 35.102 24.154 60.87 44.36 69.858 53.348 13.228 13.224 20.554 30.776 20.632 49.422zM902.434 523.604c0-23.93-9.32-46.428-26.238-63.346l-485.584-485.586c-7.328-7.33-19.26-7.33-26.59 0l-325.334 325.334c-3.55 3.55-5.508 8.272-5.508 13.296s1.956 9.744 5.508 13.294l485.582 485.582c16.922 16.92 39.418 26.238 63.346 26.238h242.926c27.28 0 51.060-15.274 63.236-37.718-19.596-12.976-41.538-26.774-64.816-40.342-0.726 0.796-1.468 1.584-2.238 2.354-27.168 27.168-71.372 27.168-98.54 0s-27.168-71.372 0-98.54c13.584-13.584 31.428-20.374 49.27-20.374s35.686 6.79 49.27 20.374c18.134 18.134 24.144 43.852 18.072 67.034 20.246 11.786 39.688 23.832 57.63 35.486 0.002-0.056 0.006-0.108 0.006-0.162v-242.924zM762.638 705.986c2.914-5.794 8.762-9.138 14.834-9.138 2.506 0 5.052 0.57 7.444 1.774 9.724 4.892 19.414 9.98 29.008 15.192 0.096-9.47-3.444-18.97-10.656-26.182-14.232-14.23-37.384-14.23-51.616 0-14.23 14.232-14.23 37.384 0 51.616 7.116 7.116 16.462 10.672 25.808 10.672 7.4 0 14.778-2.268 21.072-6.726-9.39-5.104-18.92-10.102-28.526-14.936-8.19-4.114-11.488-14.088-7.368-22.272zM494.324 622.076c-9.162 0-16.59-7.426-16.59-16.59v-350.358c0-9.162 7.428-16.59 16.59-16.59s16.59 7.428 16.59 16.59v350.358c0 9.164-7.428 16.59-16.59 16.59zM418.462 479.574c-27.166 27.172-71.372 27.17-98.536 0.002-27.168-27.168-27.168-71.372 0-98.54 13.586-13.586 31.426-20.376 49.27-20.374 17.84 0 35.686 6.794 49.268 20.374 13.162 13.162 20.41 30.658 20.41 49.27s-7.25 36.11-20.412 49.268zM395.002 404.5c-14.232-14.232-37.384-14.23-51.614 0-14.23 14.232-14.23 37.384 0 51.616 7.116 7.116 16.462 10.672 25.808 10.672s18.692-3.556 25.808-10.672c6.894-6.894 10.69-16.058 10.69-25.808-0.002-9.75-3.798-18.914-10.692-25.808zM668.72 479.576c-27.168 27.17-71.374 27.168-98.536 0-27.168-27.168-27.168-71.372 0-98.54 13.584-13.584 31.426-20.374 49.27-20.374 17.842 0 35.686 6.79 49.268 20.374 27.166 27.168 27.166 71.372-0.002 98.54zM645.258 404.5c-14.232-14.232-37.384-14.23-51.614 0-14.23 14.232-14.23 37.384 0 51.616 7.116 7.116 16.462 10.672 25.808 10.672s18.692-3.556 25.808-10.672c14.23-14.232 14.23-37.384-0.002-51.616z" />
<glyph unicode="&#xe92c;" glyph-name="star" d="M512 202.667l-264-160 70 300-232 202 306 26 120 282 120-282 306-26-232-202 70-300z" />
<glyph unicode="&#xe968;" glyph-name="undo2" d="M761.862-64c113.726 206.032 132.888 520.306-313.862 509.824v-253.824l-384 384 384 384v-248.372c534.962 13.942 594.57-472.214 313.862-775.628z" />
<glyph unicode="&#xe9da;" glyph-name="heart" d="M755.188 896c-107.63 0-200.258-87.554-243.164-179-42.938 91.444-135.578 179-243.216 179-148.382 0-268.808-120.44-268.808-268.832 0-301.846 304.5-380.994 512.022-679.418 196.154 296.576 511.978 387.206 511.978 679.418 0 148.392-120.43 268.832-268.812 268.832z" />
<glyph unicode="&#xea10;" glyph-name="checkmark" d="M864 832l-480-480-224 224-160-160 384-384 640 640z" />
<glyph unicode="&#xea1c;" glyph-name="play3" d="M192 832l640-384-640-384z" />
<glyph unicode="&#xea3c;" glyph-name="arrow-right2" d="M621.254 82.746l320 320c24.994 24.992 24.994 65.516 0 90.51l-320 320c-24.994 24.992-65.516 24.992-90.51 0-24.994-24.994-24.994-65.516 0-90.51l210.746-210.746h-613.49c-35.346 0-64-28.654-64-64s28.654-64 64-64h613.49l-210.746-210.746c-12.496-12.496-18.744-28.876-18.744-45.254s6.248-32.758 18.744-45.254c24.994-24.994 65.516-24.994 90.51 0z" />
<glyph unicode="&#xea40;" glyph-name="arrow-left2" d="M402.746 82.746l-320 320c-24.994 24.992-24.994 65.516 0 90.51l320 320c24.994 24.992 65.516 24.992 90.51 0 24.994-24.994 24.994-65.516 0-90.51l-210.746-210.746h613.49c35.346 0 64-28.654 64-64s-28.654-64-64-64h-613.49l210.746-210.746c12.496-12.496 18.744-28.876 18.744-45.254s-6.248-32.758-18.744-45.254c-24.994-24.994-65.516-24.994-90.51 0z" />
<glyph unicode="&#xea92;" glyph-name="instagram" d="M512 867.8c136.8 0 153-0.6 206.8-3 50-2.2 77-10.6 95-17.6 23.8-9.2 41-20.4 58.8-38.2 18-18 29-35 38.4-58.8 7-18 15.4-45.2 17.6-95 2.4-54 3-70.2 3-206.8s-0.6-153-3-206.8c-2.2-50-10.6-77-17.6-95-9.2-23.8-20.4-41-38.2-58.8-18-18-35-29-58.8-38.4-18-7-45.2-15.4-95-17.6-54-2.4-70.2-3-206.8-3s-153 0.6-206.8 3c-50 2.2-77 10.6-95 17.6-23.8 9.2-41 20.4-58.8 38.2-18 18-29 35-38.4 58.8-7 18-15.4 45.2-17.6 95-2.4 54-3 70.2-3 206.8s0.6 153 3 206.8c2.2 50 10.6 77 17.6 95 9.2 23.8 20.4 41 38.2 58.8 18 18 35 29 58.8 38.4 18 7 45.2 15.4 95 17.6 53.8 2.4 70 3 206.8 3zM512 960c-139 0-156.4-0.6-211-3-54.4-2.4-91.8-11.2-124.2-23.8-33.8-13.2-62.4-30.6-90.8-59.2-28.6-28.4-46-57-59.2-90.6-12.6-32.6-21.4-69.8-23.8-124.2-2.4-54.8-3-72.2-3-211.2s0.6-156.4 3-211c2.4-54.4 11.2-91.8 23.8-124.2 13.2-33.8 30.6-62.4 59.2-90.8 28.4-28.4 57-46 90.6-59 32.6-12.6 69.8-21.4 124.2-23.8 54.6-2.4 72-3 211-3s156.4 0.6 211 3c54.4 2.4 91.8 11.2 124.2 23.8 33.6 13 62.2 30.6 90.6 59s46 57 59 90.6c12.6 32.6 21.4 69.8 23.8 124.2 2.4 54.6 3 72 3 211s-0.6 156.4-3 211c-2.4 54.4-11.2 91.8-23.8 124.2-12.6 34-30 62.6-58.6 91-28.4 28.4-57 46-90.6 59-32.6 12.6-69.8 21.4-124.2 23.8-54.8 2.6-72.2 3.2-211.2 3.2v0zM512 711c-145.2 0-263-117.8-263-263s117.8-263 263-263 263 117.8 263 263c0 145.2-117.8 263-263 263zM512 277.4c-94.2 0-170.6 76.4-170.6 170.6s76.4 170.6 170.6 170.6c94.2 0 170.6-76.4 170.6-170.6s-76.4-170.6-170.6-170.6zM846.8 721.4c0-33.91-27.49-61.4-61.4-61.4s-61.4 27.49-61.4 61.4c0 33.91 27.49 61.4 61.4 61.4s61.4-27.49 61.4-61.4z" />
<glyph unicode="&#xeab9;" glyph-name="tumblr" d="M576.032 512l-0.002-234.184c0-59.418-0.77-93.656 5.53-110.5 6.25-16.754 21.918-34.146 38.99-44.202 22.684-13.588 48.542-20.376 77.708-20.376 51.854 0 82.478 6.848 133.742 40.54v-153.944c-43.7-20.552-81.866-32.594-117.324-40.922-35.5-8.242-73.86-12.406-115.064-12.406-46.828 0-74.456 5.886-110.41 17.656-35.958 11.868-66.66 28.806-92.020 50.54-25.45 21.922-43.022 45.208-52.848 69.832-9.826 24.636-14.716 60.414-14.716 107.244v359.1h-137.426v145.006c40.208 13.042 85.164 31.788 113.78 56.152 28.754 24.45 51.766 53.706 69.106 87.944 17.392 34.146 29.348 77.712 35.872 130.516h165.084l-0.002-255.996h255.968v-192h-255.968z" />
<glyph unicode="&#xeac5;" glyph-name="skype" d="M425.6 922.6c-1.6 1-3.4 1.8-5 2.6-1.8-0.4-3.4-0.6-5.2-1l10.2-1.6zM36.8 539c-0.4-1.8-0.6-3.6-0.8-5.2 1-1.6 1.6-3.2 2.6-4.8l-1.8 10zM986.8 357.4c0.4 1.8 0.6 3.6 1 5.4-1 1.6-1.6 3.2-2.6 4.8l1.6-10.2zM592-23c1.6-1 3.4-1.8 5-2.6 1.8 0.4 3.6 0.6 5.4 0.8l-10.4 1.8zM987.8 362.8c-0.4-1.8-0.6-3.6-1-5.4l-1.8 10.4c1-1.8 1.8-3.4 2.8-5 5.2 28.8 8 58.2 8 87.6 0 65.2-12.8 128.6-38 188.2-24.4 57.6-59.2 109.4-103.6 153.8s-96.2 79.2-153.6 103.6c-59.6 25.2-123 38-188.2 38-30.8 0-61.6-2.8-91.6-8.6 0 0-0.2 0-0.2 0 1.6-0.8 3.4-1.6 5-2.6l-10.2 1.6c1.8 0.4 3.4 0.6 5.2 1-41.2 21.8-87.4 33.6-134.2 33.6-76.4 0-148.4-29.8-202.4-83.8s-83.8-126-83.8-202.4c0-48.6 12.6-96.6 36-138.8 0.4 1.8 0.6 3.6 0.8 5.2l1.8-10.2c-1 1.6-1.8 3.2-2.6 4.8-4.8-27.4-7.2-55.4-7.2-83.4 0-65.2 12.8-128.6 38-188.2 24.4-57.6 59.2-109.2 103.6-153.6s96.2-79.2 153.8-103.6c59.6-25.2 123-38 188.2-38 28.4 0 56.8 2.6 84.6 7.6-1.6 1-3.2 1.8-5 2.6l10.4-1.8c-1.8-0.4-3.6-0.6-5.4-0.8 42.8-24.2 91.4-37.2 140.8-37.2 76.4 0 148.4 29.8 202.4 83.8s83.8 126 83.8 202.4c-0.2 48.6-12.8 96.6-36.4 139.2zM514.2 154.2c-171.8 0-248.6 84.4-248.6 147.8 0 32.4 24 55.2 57 55.2 73.6 0 54.4-105.6 191.6-105.6 70.2 0 109 38.2 109 77.2 0 23.4-11.6 49.4-57.8 60.8l-152.8 38.2c-123 30.8-145.4 97.4-145.4 160 0 129.8 122.2 178.6 237 178.6 105.8 0 230.4-58.4 230.4-136.4 0-33.4-29-52.8-62-52.8-62.8 0-51.2 86.8-177.6 86.8-62.8 0-97.4-28.4-97.4-69s49.6-53.6 92.6-63.4l113.2-25.2c123.8-27.6 155.2-100 155.2-168 0-105.4-81-184.2-244.4-184.2z" />
<glyph unicode="&#xead1;" glyph-name="pinterest" d="M512 891.6c-245 0-443.6-198.6-443.6-443.6 0-188 117-348.4 282-413-3.8 35-7.4 89 1.6 127.2 8 34.6 52 220.4 52 220.4s-13.2 26.6-13.2 65.8c0 61.6 35.8 107.8 80.2 107.8 37.8 0 56.2-28.4 56.2-62.4 0-38-24.2-95-36.8-147.6-10.6-44.2 22-80.2 65.6-80.2 78.8 0 139.4 83.2 139.4 203.2 0 106.2-76.4 180.4-185.2 180.4-126.2 0-200.2-94.6-200.2-192.6 0-38.2 14.6-79 33-101.2 3.6-4.4 4.2-8.2 3-12.8-3.4-14-10.8-44.2-12.4-50.4-2-8.2-6.4-9.8-14.8-6-55.4 25.8-90 106.8-90 171.8 0 140 101.6 268.4 293 268.4 153.8 0 273.4-109.6 273.4-256.2 0-152.8-96.4-276-230.2-276-45 0-87.2 23.4-101.6 51 0 0-22.2-84.6-27.6-105.4-10-38.6-37-86.8-55.2-116.2 41.6-12.8 85.6-19.8 131.4-19.8 245 0 443.6 198.6 443.6 443.6 0 245.2-198.6 443.8-443.6 443.8z" />
</font>
</defs>
</svg>
